<svg width="64" height="60" viewBox="0 0 64 60" fill="none" xmlns="http://www.w3.org/2000/svg">
<g id="icon-phone-call">
<ellipse id="Oval" opacity="0.1" cx="31.5789" cy="30" rx="31.5789" ry="30" fill="#FF8200"/>
<g id="mobile-phone-2">
<path id="Combined Shape" fill-rule="evenodd" clip-rule="evenodd" d="M24.2104 39.5C24.2104 40.878 25.3904 42 26.842 42H36.3157C37.7662 42 38.9473 40.878 38.9473 39.5V20.5C38.9473 19.121 37.7662 18 36.3157 18H26.842C25.3904 18 24.2104 19.121 24.2104 20.5V39.5ZM26.842 41C25.9715 41 25.2631 40.327 25.2631 39.5V38H37.8947V39.5C37.8947 40.327 37.1862 41 36.3157 41H26.842ZM37.8947 20.5V37H25.2631V20.5C25.2631 19.673 25.9715 19 26.842 19H36.3157C37.1862 19 37.8947 19.673 37.8947 20.5ZM30.7894 39.5C30.7894 39.914 31.1431 40.25 31.5789 40.25C32.0147 40.25 32.3683 39.914 32.3683 39.5C32.3683 39.086 32.0147 38.75 31.5789 38.75C31.5631 38.75 31.5483 38.751 31.5304 38.753C31.5295 38.753 31.5283 38.7532 31.5271 38.7534C31.5255 38.7537 31.5238 38.754 31.522 38.754C31.1104 38.782 30.7894 39.109 30.7894 39.5Z" fill="#FF8200"/>
</g>
</g>
</svg>
