<svg width="60" height="60" viewBox="0 0 60 60" fill="none" xmlns="http://www.w3.org/2000/svg">
<g id="icon-phone-call">
<circle id="Oval" opacity="0.1" cx="30" cy="30" r="30" fill="#FF8200"/>
<path id="Shape" fill-rule="evenodd" clip-rule="evenodd" d="M23 18C23.7956 18 24.5587 18.3161 25.1213 18.8787C25.6839 19.4413 26 20.2044 26 21C26 22.6569 24.6569 24 23 24C21.3431 24 20 22.6569 20 21C20 19.3431 21.3431 18 23 18ZM41.9969 31.5628C41.9046 27.4604 39.7931 24.99 36.49 24.99L36.1877 25.0006L35.8648 25.0268C34.8997 25.1285 33.9694 25.4352 33.1358 25.9238L33 26.006V25.5L32.9919 25.4101C32.9496 25.1769 32.7455 25 32.5 25H27.5L27.4101 25.0081C27.1769 25.0504 27 25.2545 27 25.5V38.5L27.0081 38.5899C27.0504 38.8231 27.2545 39 27.5 39H32.5L32.5899 38.9919C32.8231 38.9496 33 38.7455 33 38.5V31.5L33.0069 31.3555C33.0796 30.5949 33.7203 30 34.5 30C35.3284 30 36 30.6716 36 31.5V38.5L36.0081 38.5899C36.0504 38.8231 36.2545 39 36.5 39H41.5L41.5899 38.9919C41.8231 38.9496 42 38.7455 42 38.5V31.845L41.9969 31.5628ZM25.9919 25.4101C25.9496 25.1769 25.7455 25 25.5 25H20.5L20.4101 25.0081C20.1769 25.0504 20 25.2545 20 25.5V38.5L20.0081 38.5899C20.0504 38.8231 20.2545 39 20.5 39H25.5L25.5899 38.9919C25.8231 38.9496 26 38.7455 26 38.5V25.5L25.9919 25.4101ZM25 26H21V38H25V26ZM32.8233 27.3664C33.8511 26.4953 35.1498 26.0087 36.497 25.99L36.6964 25.9939L36.9042 26.0061C39.4398 26.2069 41 28.2787 41 31.845V38H37V31.5L36.9947 31.3356C36.91 30.0315 35.8255 29 34.5 29L34.3356 29.0053L34.1741 29.0211C32.9474 29.1808 32 30.2297 32 31.5V38H28V26H32V26.985L32.0064 27.0675C32.0657 27.4394 32.5201 27.6234 32.8233 27.3664ZM21 21C21 19.8954 21.8954 19 23 19C23.5304 19 24.0391 19.2107 24.4142 19.5858C24.7893 19.9609 25 20.4696 25 21C25 22.1046 24.1046 23 23 23C21.8954 23 21 22.1046 21 21Z" fill="#FF8200"/>
</g>
</svg>
